<svg xmlns="http://www.w3.org/2000/svg" xmlns:xlink="http://www.w3.org/1999/xlink" width="2000" zoomAndPan="magnify" viewBox="0 0 1500 1499.999933" height="2000" preserveAspectRatio="xMidYMid meet" version="1.0"><path stroke-linecap="round" transform="matrix(84.659993, 0, 0, 84.659986, -308.048671, -330.962247)" fill="none" stroke-linejoin="round" d="M 17.700005 5.127558 L 19.266011 6.374596 C 19.417214 6.516893 19.502481 6.715712 19.501282 6.92339 C 19.50022 7.131068 19.412784 7.328919 19.260013 7.469601 L 18.070005 8.893588 L 14.020996 13.722601 C 13.950078 13.803716 13.855813 13.8607 13.750982 13.885615 L 11.650992 14.3616 C 11.375487 14.375396 11.135603 14.175101 11.099983 13.90158 L 11.099983 11.743591 C 11.107088 11.639498 11.148984 11.540896 11.218979 11.463611 L 15.19301 6.970592 L 16.557013 5.341557 C 16.826797 4.987844 17.320407 4.895471 17.700005 5.127558 Z M 17.700005 5.127558 " stroke="#ffffff" stroke-width="1.5" stroke-opacity="1" stroke-miterlimit="4"/><path fill="#ffffff" d="M 710.664062 314.03125 C 745.730469 314.03125 774.160156 285.605469 774.160156 250.539062 C 774.160156 215.46875 745.730469 187.042969 710.664062 187.042969 Z M 473.617188 250.539062 L 473.617188 187.042969 L 473.464844 187.042969 Z M 157.582031 568.015625 L 221.078125 568.015625 L 221.078125 567.871094 Z M 157.582031 1044.230469 L 221.078125 1044.363281 L 221.078125 1044.230469 Z M 473.617188 1361.703125 L 473.464844 1425.199219 L 473.617188 1425.199219 Z M 947.714844 1361.703125 L 947.714844 1425.199219 L 947.867188 1425.199219 Z M 1263.75 1044.230469 L 1200.253906 1044.230469 L 1200.253906 1044.363281 Z M 1327.242188 726.753906 C 1327.242188 691.679688 1298.816406 663.257812 1263.75 663.257812 C 1228.683594 663.257812 1200.253906 691.679688 1200.253906 726.753906 Z M 1036.886719 234.945312 C 1023.5 202.53125 986.378906 187.101562 953.960938 200.480469 C 921.542969 213.863281 906.121094 250.988281 919.503906 283.402344 Z M 1235.464844 483.632812 C 1269.699219 476.066406 1291.324219 442.171875 1283.753906 407.929688 C 1276.183594 373.691406 1242.296875 352.066406 1208.050781 359.636719 Z M 394.628906 1060.144531 C 359.5625 1060.144531 331.136719 1088.566406 331.136719 1123.640625 C 331.136719 1158.707031 359.5625 1187.136719 394.628906 1187.136719 Z M 1026.785156 1187.136719 C 1061.851562 1187.136719 1090.28125 1158.707031 1090.28125 1123.640625 C 1090.28125 1088.566406 1061.851562 1060.144531 1026.785156 1060.144531 Z M 710.664062 187.042969 L 473.617188 187.042969 L 473.617188 314.03125 L 710.664062 314.03125 Z M 473.464844 187.042969 C 263.476562 187.546875 93.636719 358.15625 94.085938 568.152344 L 221.078125 567.871094 C 220.777344 428.007812 333.902344 314.367188 473.769531 314.03125 Z M 94.085938 568.015625 L 94.085938 1044.230469 L 221.078125 1044.230469 L 221.078125 568.015625 Z M 94.085938 1044.085938 C 93.636719 1254.074219 263.476562 1424.691406 473.464844 1425.199219 L 473.769531 1298.210938 C 333.902344 1297.871094 220.777344 1184.230469 221.078125 1044.363281 Z M 473.617188 1425.199219 L 947.714844 1425.199219 L 947.714844 1298.210938 L 473.617188 1298.210938 Z M 947.867188 1425.199219 C 1157.855469 1424.691406 1327.691406 1254.074219 1327.242188 1044.085938 L 1200.253906 1044.363281 C 1200.550781 1184.230469 1087.425781 1297.871094 947.5625 1298.210938 Z M 1327.242188 1044.230469 L 1327.242188 726.753906 L 1200.253906 726.753906 L 1200.253906 1044.230469 Z M 919.503906 283.402344 C 936.003906 323.371094 969.664062 380.023438 1019.980469 423.800781 C 1071.433594 468.578125 1145.386719 503.546875 1235.464844 483.632812 L 1208.050781 359.636719 C 1168.683594 368.339844 1134.480469 355.097656 1103.335938 327.996094 C 1071.039062 299.894531 1047.644531 261.007812 1036.886719 234.945312 Z M 394.628906 1187.136719 L 1026.785156 1187.136719 L 1026.785156 1060.144531 L 394.628906 1060.144531 Z M 394.628906 1187.136719 " fill-opacity="1" fill-rule="nonzero"/></svg>